{"accessors":[{"bufferView":2,"componentType":5126,"count":24,"max":[1.9822499752044678,1.8885300159454346,2.028939962387085],"min":[-2.0177500247955322,-2.1114699840545654,-1.971060037612915],"type":"VEC3"},{"bufferView":2,"byteOffset":288,"componentType":5126,"count":24,"max":[1,1,1],"min":[-1,-1,-1],"type":"VEC3"},{"bufferView":1,"componentType":5126,"count":24,"max":[0.9900000095367432,0.9900000095367432],"min":[0.001970000099390745,0.009999999776482582],"type":"VEC2"},{"bufferView":0,"componentType":5125,"count":36,"type":"SCALAR"}],"asset":{"extras":{"author":"cossettej (https://sketchfab.com/cossettej)","license":"CC-BY-4.0 (http://creativecommons.org/licenses/by/4.0/)","source":"https://sketchfab.com/3d-models/inquiry-cube-level-2-475f260da52c48d2b0a0aa85b57cab8a","title":"Inquiry Cube - Level 2"},"generator":"Sketchfab-12.67.0","version":"2.0"},"bufferViews":[{"buffer":0,"byteLength":144,"name":"floatBufferViews","target":34963},{"buffer":0,"byteLength":192,"byteOffset":144,"byteStride":8,"name":"floatBufferViews","target":34962},{"buffer":0,"byteLength":576,"byteOffset":336,"byteStride":12,"name":"floatBufferViews","target":34962}],"buffers":[{"byteLength":912,"uri":"data:application/octet-stream;base64,"}],"extensionsUsed":["KHR_materials_unlit"],"images":[{"uri":"data:application/octet-stream;base64,"}],"materials":[{"doubleSided":true,"extensions":{"KHR_materials_unlit":{}},"name":"material","pbrMetallicRoughness":{"baseColorTexture":{"index":0},"metallicFactor":0}}],"meshes":[{"name":"Object_0","primitives":[{"attributes":{"NORMAL":1,"POSITION":0,"TEXCOORD_0":2},"indices":3,"material":0,"mode":4}]}],"nodes":[{"children":[1],"matrix":[0.10000000149011612,0,0,0,0,2.2204460823375376e-17,-0.10000000149011612,0,0,0.10000000149011612,2.2204460823375376e-17,0,0,0,0,1],"name":"Sketchfab_model"},{"children":[2],"name":"level2.obj.cleaner.materialmerger.gles"},{"mesh":0,"name":"Object_2"}],"samplers":[{"magFilter":9729,"minFilter":9987,"wrapS":10497,"wrapT":10497}],"scene":0,"scenes":[{"name":"Sketchfab_Scene","nodes":[0]}],"textures":[{"sampler":0,"source":0}]}